<svg width="17" height="23" viewBox="0 0 17 23" fill="none" xmlns="http://www.w3.org/2000/svg">
<circle cx="8.5" cy="9.5" r="8.5" fill="white"/>
<path d="M8.14209 10.9204C7.40479 10.7495 6.81641 10.4639 6.37695 10.0635C5.9375 9.66309 5.71777 9.13086 5.71777 8.4668C5.71777 7.86621 5.84717 7.31445 6.10596 6.81152C6.36963 6.30859 6.73828 5.90576 7.21191 5.60303C7.69043 5.29541 8.25195 5.1416 8.89648 5.1416C9.32129 5.1416 9.69727 5.20752 10.0244 5.33936C10.3564 5.46631 10.6641 5.63721 10.9473 5.85205L10.3906 7.36084C10.1904 7.24365 9.97314 7.13135 9.73877 7.02393C9.50439 6.9165 9.25049 6.86279 8.97705 6.86279C8.7085 6.86279 8.45215 6.93115 8.20801 7.06787C7.96387 7.19971 7.76367 7.37549 7.60742 7.59521C7.45605 7.81006 7.38037 8.04443 7.38037 8.29834C7.38037 8.49365 7.48291 8.67188 7.68799 8.83301C7.89795 8.99414 8.1665 9.12842 8.49365 9.23584C8.8208 9.33838 9.1626 9.4043 9.51904 9.43359C9.55322 9.43359 9.5874 9.4165 9.62158 9.38232C9.97803 9.15771 10.3003 8.9502 10.5884 8.75977C10.8765 8.56934 11.2134 8.37646 11.5991 8.18115L12.0605 9.84375C11.0986 10.4102 10.2344 11.1328 9.46777 12.0117C8.70605 12.8857 7.96143 13.9819 7.23389 15.3003L5.6958 14.6484C6.0376 13.9404 6.4209 13.2764 6.8457 12.6562C7.27051 12.0361 7.70264 11.4575 8.14209 10.9204Z" fill="#FE9D26"/>
</svg>
