<svg width="22" height="22" viewBox="0 0 22 22" fill="none" xmlns="http://www.w3.org/2000/svg">
<path d="M3.46298 10.9471C2.59396 9.43178 2.17436 8.19444 1.92135 6.9402C1.54715 5.0852 2.40349 3.27316 3.8221 2.11694C4.42166 1.62827 5.10896 1.79523 5.4635 2.43128L6.26391 3.86725C6.89835 5.00544 7.21556 5.57453 7.15264 6.17788C7.08972 6.78123 6.66192 7.27263 5.80631 8.25542L3.46298 10.9471ZM3.46298 10.9471C5.22196 14.0142 7.98235 16.7761 11.053 18.5371M11.053 18.5371C12.5683 19.4061 13.8056 19.8257 15.0599 20.0787C16.9149 20.4529 18.7269 19.5966 19.8831 18.178C20.3718 17.5784 20.2049 16.8911 19.5688 16.5366L18.1328 15.7362C16.9946 15.1017 16.4256 14.7845 15.8222 14.8474C15.2189 14.9104 14.7275 15.3382 13.7447 16.1938L11.053 18.5371Z" stroke="white" stroke-width="1.5" stroke-linejoin="round"/>
</svg>
