<svg width="22" height="22" viewBox="0 0 22 22" fill="none" xmlns="http://www.w3.org/2000/svg">
<path d="M3.46298 10.9472C2.59396 9.4319 2.17436 8.19456 1.92135 6.94032C1.54715 5.08532 2.40349 3.27328 3.8221 2.11706C4.42166 1.62839 5.10896 1.79535 5.4635 2.43141L6.26391 3.86737C6.89835 5.00556 7.21556 5.57465 7.15264 6.178C7.08972 6.78135 6.66192 7.27275 5.80631 8.25555L3.46298 10.9472ZM3.46298 10.9472C5.22196 14.0143 7.98235 16.7762 11.053 18.5372M11.053 18.5372C12.5683 19.4062 13.8056 19.8258 15.0599 20.0789C16.9149 20.4531 18.7269 19.5967 19.8831 18.1781C20.3718 17.5786 20.2049 16.8912 19.5688 16.5367L18.1328 15.7363C16.9946 15.1019 16.4256 14.7846 15.8222 14.8476C15.2189 14.9105 14.7275 15.3383 13.7447 16.1939L11.053 18.5372Z" stroke="#FE9D26" stroke-width="1.5" stroke-linejoin="round"></path>
</svg>
