<svg width="25" height="25" viewBox="0 0 25 25" fill="none" xmlns="http://www.w3.org/2000/svg">
<circle cx="12.5" cy="12.5" r="12.5" fill="#E04218"></circle>
<path d="M18.75 7.625L18.2336 15.1438C18.1016 17.0648 18.0356 18.0253 17.5006 18.7159C17.2361 19.0573 16.8955 19.3455 16.5006 19.562C15.7018 20 14.6325 20 12.494 20C10.3526 20 9.28192 20 8.48254 19.5612C8.08733 19.3443 7.74666 19.0556 7.48224 18.7136C6.9474 18.0219 6.88288 17.0601 6.75384 15.1364L6.25 7.625" stroke="white" stroke-width="1.5" stroke-linecap="round"></path>
<path d="M20 7.625H5" stroke="white" stroke-width="1.5" stroke-linecap="round"></path>
<path d="M15.8795 7.625L15.3106 6.5688C14.9327 5.86719 14.7437 5.51639 14.4178 5.2976C14.3455 5.24907 14.2689 5.20591 14.1889 5.16853C13.8279 5 13.3948 5 12.5285 5C11.6404 5 11.1963 5 10.8294 5.17559C10.7481 5.21451 10.6705 5.25942 10.5974 5.30988C10.2677 5.53753 10.0835 5.90116 9.71518 6.62844L9.21045 7.625" stroke="white" stroke-width="1.5" stroke-linecap="round"></path>
<path d="M10.4165 15.8751L10.4165 11.3751" stroke="white" stroke-width="1.5" stroke-linecap="round"></path>
<path d="M14.5835 15.8751L14.5835 11.3751" stroke="white" stroke-width="1.5" stroke-linecap="round"></path>
</svg>
