<svg width="71" height="26" viewBox="0 0 71 26" fill="none" xmlns="http://www.w3.org/2000/svg">
<path d="M37.5969 6.01562L38.8156 7.23438L37.5969 8.45312L36.3781 7.23438L37.5969 6.01562ZM38.9562 8.00781L40.175 9.22656L38.9562 10.4453L37.7453 9.22656L38.9562 8.00781ZM36.2375 8.00781L37.4562 9.22656L36.2375 10.4453L35.0187 9.22656L36.2375 8.00781ZM29.7297 18.9453C30.5005 18.9453 31.1073 18.8203 31.55 18.5703C31.9927 18.3255 32.3052 17.9896 32.4875 17.5625C32.675 17.1406 32.7687 16.6693 32.7687 16.1484C32.7687 15.5755 32.6802 14.9922 32.5031 14.3984C32.326 13.7995 32.1333 13.2422 31.925 12.7266L33.8625 11.9922L34.3859 13.5781C34.5057 13.9583 34.6854 14.2734 34.925 14.5234C35.1698 14.7734 35.5083 14.8984 35.9406 14.8984C36.399 14.8984 36.7036 14.7969 36.8547 14.5938C37.0109 14.3906 37.0891 14.0521 37.0891 13.5781C37.0891 13.4635 37.0786 13.2422 37.0578 12.9141C37.0422 12.5859 37.0214 12.2734 36.9953 11.9766L38.8312 11.75L38.9875 13.7734C39.0083 14.112 39.0943 14.3854 39.2453 14.5938C39.3964 14.7969 39.649 14.8984 40.0031 14.8984C40.326 14.8984 40.5552 14.7865 40.6906 14.5625C40.826 14.3333 40.8937 14.0052 40.8937 13.5781C40.8937 13.3906 40.8833 13.1354 40.8625 12.8125C40.8469 12.4844 40.826 12.1589 40.8 11.8359L42.6359 11.6094L42.7922 13.7734C42.8182 14.1797 42.9328 14.4688 43.1359 14.6406C43.3391 14.8125 43.6464 14.8984 44.0578 14.8984H44.2922V17H44.0734C43.5839 17 43.1542 16.9141 42.7844 16.7422C42.4198 16.5651 42.1385 16.3229 41.9406 16.0156C41.7323 16.3021 41.4719 16.5391 41.1594 16.7266C40.8469 16.9089 40.4641 17 40.0109 17C39.537 17 39.1411 16.9036 38.8234 16.7109C38.5057 16.513 38.2401 16.263 38.0266 15.9609C37.7557 16.2682 37.4484 16.5182 37.1047 16.7109C36.7661 16.9036 36.3729 17 35.925 17C35.6698 17 35.438 16.9635 35.2297 16.8906C35.0266 16.8177 34.8417 16.724 34.675 16.6094C34.5552 17.9479 34.0786 19.0156 33.2453 19.8125C32.4172 20.6146 31.2453 21.0156 29.7297 21.0156C28.6047 21.0156 27.6828 20.8021 26.9641 20.375C26.2505 19.9531 25.7219 19.3776 25.3781 18.6484C25.0396 17.9193 24.8703 17.1016 24.8703 16.1953C24.8703 15.5911 24.938 14.9661 25.0734 14.3203C25.2089 13.6693 25.3964 13.0234 25.6359 12.3828L27.4094 13.0703C27.2271 13.6068 27.0734 14.1354 26.9484 14.6562C26.8234 15.1771 26.7609 15.6693 26.7609 16.1328C26.7609 16.6432 26.8495 17.112 27.0266 17.5391C27.2089 17.9661 27.5161 18.3073 27.9484 18.5625C28.3807 18.8177 28.9745 18.9453 29.7297 18.9453ZM45.4994 17H43.8119V14.8984H45.4994C45.9212 14.8984 46.2077 14.7708 46.3587 14.5156C46.515 14.2604 46.5931 13.9349 46.5931 13.5391C46.5931 13.1849 46.5541 12.8021 46.4759 12.3906C46.3978 11.974 46.3145 11.5677 46.2259 11.1719L48.14 10.6797C48.239 11.1536 48.3171 11.625 48.3744 12.0938C48.4317 12.5573 48.4603 13 48.4603 13.4219C48.4603 14.1042 48.3692 14.7161 48.1869 15.2578C48.0046 15.7943 47.6973 16.2188 47.265 16.5312C46.8327 16.8438 46.2442 17 45.4994 17ZM46.6478 18.0469L47.9447 19.3281L46.6478 20.625L45.3666 19.3281L46.6478 18.0469ZM44.0228 18.0469L45.3197 19.3281L44.0228 20.625L42.7416 19.3281L44.0228 18.0469ZM52.0112 6.08594V16.9922H50.0581V6.08594H52.0112ZM58.1325 17C57.8773 17 57.6429 16.9714 57.4294 16.9141C57.221 16.8568 57.0466 16.7839 56.9059 16.6953C56.7184 17.8568 56.2341 18.8385 55.4528 19.6406C54.6716 20.4479 53.5908 20.9844 52.2106 21.25L51.4919 19.3281C52.6481 19.0781 53.5387 18.6849 54.1637 18.1484C54.794 17.612 55.1091 16.8255 55.1091 15.7891C55.1091 15.3203 55.0387 14.8021 54.8981 14.2344C54.7627 13.6615 54.6091 13.1198 54.4372 12.6094L56.3747 11.9688L56.8278 13.7109C56.9164 14.0651 57.0544 14.3516 57.2419 14.5703C57.4294 14.7891 57.6976 14.8984 58.0466 14.8984H58.3512V17H58.1325ZM60.0975 17H57.8787V14.8984H60.0975C60.5194 14.8984 60.8058 14.7708 60.9569 14.5156C61.1131 14.2604 61.1912 13.9349 61.1912 13.5391C61.1912 13.1849 61.1522 12.8021 61.0741 12.3906C60.9959 11.974 60.9126 11.5677 60.8241 11.1719L62.7381 10.6797C62.8371 11.1536 62.9152 11.625 62.9725 12.0938C63.0298 12.5573 63.0584 13 63.0584 13.4219C63.0584 14.1042 62.9673 14.7161 62.785 15.2578C62.6027 15.7943 62.2954 16.2188 61.8631 16.5312C61.4308 16.8438 60.8423 17 60.0975 17ZM61.2459 18.0469L62.5428 19.3281L61.2459 20.625L59.9647 19.3281L61.2459 18.0469ZM58.6209 18.0469L59.9178 19.3281L58.6209 20.625L57.3397 19.3281L58.6209 18.0469ZM70.3281 15.3438C70.3281 16.5208 70.1094 17.5078 69.6719 18.3047C69.2396 19.1016 68.6172 19.737 67.8047 20.2109C66.9974 20.6849 66.0339 21.0286 64.9141 21.2422L64.2031 19.3203C65.2917 19.1068 66.1953 18.7969 66.9141 18.3906C67.6328 17.9896 68.0807 17.4922 68.2578 16.8984C67.9297 16.9766 67.6276 17.0156 67.3516 17.0156C66.3776 17.0156 65.612 16.8021 65.0547 16.375C64.5026 15.9427 64.2266 15.2448 64.2266 14.2812C64.2266 13.8698 64.2891 13.4505 64.4141 13.0234C64.5391 12.5964 64.724 12.2031 64.9688 11.8438C65.2135 11.4844 65.5156 11.1953 65.875 10.9766C66.2396 10.7578 66.6589 10.6484 67.1328 10.6484C67.6797 10.6484 68.1536 10.7812 68.5547 11.0469C68.9557 11.3125 69.2865 11.6693 69.5469 12.1172C69.8125 12.5651 70.0078 13.0677 70.1328 13.625C70.263 14.1823 70.3281 14.7552 70.3281 15.3438ZM67.3359 14.9297C67.5547 14.9297 67.7604 14.9167 67.9531 14.8906C68.151 14.8594 68.3203 14.8255 68.4609 14.7891C68.4297 14.4661 68.3646 14.1432 68.2656 13.8203C68.1667 13.4974 68.0234 13.2292 67.8359 13.0156C67.6536 12.8021 67.4141 12.6953 67.1172 12.6953C66.8464 12.6953 66.6354 12.7839 66.4844 12.9609C66.3333 13.138 66.2266 13.3438 66.1641 13.5781C66.1068 13.8125 66.0781 14.0208 66.0781 14.2031C66.0781 14.5052 66.1927 14.7031 66.4219 14.7969C66.6562 14.8854 66.9609 14.9297 67.3359 14.9297Z" fill="#2ABFFF"></path>
<path d="M14.0737 3.88545C14.8189 3.07808 15.1915 2.6744 15.5874 2.43893C16.5427 1.87076 17.7191 1.85309 18.6904 2.39232C19.0929 2.6158 19.4769 3.00812 20.245 3.79276C21.0131 4.5774 21.3972 4.96972 21.6159 5.38093C22.1438 6.37312 22.1265 7.57479 21.5703 8.5507C21.3398 8.95516 20.9446 9.33578 20.1543 10.097L10.7506 19.1543C9.25288 20.5969 8.504 21.3182 7.56806 21.6837C6.63212 22.0493 5.6032 22.0224 3.54536 21.9686L3.26538 21.9613C2.63891 21.9449 2.32567 21.9367 2.14359 21.73C1.9615 21.5234 1.98636 21.2043 2.03608 20.5662L2.06308 20.2197C2.20301 18.4235 2.27297 17.5255 2.62371 16.7182C2.97444 15.9109 3.57944 15.2555 4.78943 13.9445L14.0737 3.88545Z" stroke="#2ABFFF" stroke-width="1.5" stroke-linejoin="round"></path>
<path d="M13 4L20 11" stroke="#2ABFFF" stroke-width="1.5" stroke-linejoin="round"></path>
<path d="M14 22L22 22" stroke="#2ABFFF" stroke-width="1.5" stroke-linecap="round" stroke-linejoin="round"></path>
</svg>
